<?xml version="1.0" encoding="utf-8"?>
<!-- Generator: Adobe Illustrator 25.4.0, SVG Export Plug-In . SVG Version: 6.00 Build 0)  -->
<svg version="1.1" id="Layer_1" xmlns="http://www.w3.org/2000/svg" xmlns:xlink="http://www.w3.org/1999/xlink" x="0px" y="0px"
   viewBox="0 0 16 16" style="enable-background:new 0 0 16 16;" xml:space="preserve">
<g>
  <path d="M7.1,12.8c-0.4-0.1-0.7-0.2-1.1-0.3C3.8,11.8,2.3,9.3,2.8,7c0.5-2.6,2.7-4.3,5.4-4.2c2.3,0.1,4.4,2.1,4.6,4.4
    c0.1,1,0.2,1.1,1.3,1.1c0.6-1.8-0.9-4.8-3-6c-2.7-1.6-5.8-1.2-7.9,1C1,5.5,0.7,8.6,2.3,11.3c1.2,2,4.2,3.5,5.9,2.9
    C8.2,13,8.2,13,7.1,12.8z"/>
  <path d="M11.9,10.6c0.8-0.3,1.5-0.5,2.1-0.8c0-0.1,0-0.1,0-0.2C11.9,9,9.9,8.4,7.6,7.8C8.3,10,8.9,12,9.6,14.1c0.1,0,0.1,0,0.2,0
    c0.3-0.7,0.5-1.3,0.8-2.3c0.9,1,1.7,1.9,2.5,2.8c0.5-0.5,0.9-0.8,1.6-1.4C13.7,12.3,12.8,11.5,11.9,10.6z"/>
  <path d="M7.2,5.4c1.1-0.2,2.2,0.2,2.7,1.2c0.4,0.8,1,0.9,1.7,1C11.7,5.8,9.9,4,7.9,4c-2.4,0-4.1,1.8-4,4.2C3.9,10,6,11.9,7.6,11.6
    c-0.1-0.7-0.3-1.3-1.1-1.7c-1-0.5-1.3-1.5-1.2-2.6C5.5,6.5,6.3,5.6,7.2,5.4z"/>
</g>
</svg>
