<?xml version="1.0" encoding="utf-8"?>
<!-- Generator: Adobe Illustrator 25.4.0, SVG Export Plug-In . SVG Version: 6.00 Build 0)  -->
<svg version="1.1" id="Layer_1" xmlns="http://www.w3.org/2000/svg" xmlns:xlink="http://www.w3.org/1999/xlink" x="0px" y="0px"
   viewBox="0 0 16 16" style="enable-background:new 0 0 16 16;" xml:space="preserve">
<g>
  <path d="M12.9,8c0,0.7,0,1.4,0,2.1c0,0.5-0.2,0.8-0.6,1c-1.2,0.7-2.6,1.4-3.8,2.1c-0.3,0.2-0.7,0.2-1,0c-1.2-0.7-2.6-1.4-3.8-2.1
    c-0.4-0.2-0.6-0.5-0.6-1c0-1.4,0-2.9,0-4.3c0-0.5,0.2-0.8,0.6-1.1c1.2-0.6,2.4-1.3,3.7-2c0.4-0.2,0.8-0.2,1.2,0
    c1.2,0.7,2.4,1.4,3.7,2.1c0.4,0.2,0.6,0.6,0.6,1C12.9,6.5,12.9,7.2,12.9,8z M8.8,11.5l0.1-0.1c0.8-0.5,1.6-0.9,2.4-1.4
    c0.1,0,0.1-0.2,0.1-0.3c0-0.9,0-1.8,0-2.8c0,0,0-0.1,0-0.2l-0.1,0.1c-0.8,0.5-1.6,0.9-2.4,1.4c-0.1,0-0.1,0.2-0.1,0.3
    c0,0.9,0,1.8,0,2.7L8.8,11.5z M5.2,5.6c0.9,0.5,1.8,1,2.7,1.5c0,0,0.1,0.1,0.1,0.1c0.1,0,0.1-0.1,0.2-0.1c0.6-0.3,1.1-0.7,1.7-1
    c0,0,0.5-0.3,0.8-0.5l-0.2-0.1C9.7,5,9,4.5,8.2,4.1C8.1,4.1,8.1,4,8,4c0,0-0.1,0.1-0.1,0.1c-0.7,0.3-1.4,0.7-2,1.1
    C5.6,5.3,5.4,5.4,5.2,5.6z M7.2,11.5c0-0.1,0-0.1,0-0.1c0-1,0-1.9,0-3c0-0.1-0.1-0.2-0.2-0.2C6.4,8,5.8,7.5,5.2,7.2L4.5,6.8
    c0,0.1,0,0.1,0,0.1c0,1,0,1.9,0,3c0,0.1,0.1,0.2,0.2,0.2c0.3,0.2,0.6,0.3,0.9,0.5C6.1,10.9,6.6,11.2,7.2,11.5z"/>
  <path d="M11.4,13.6c0.6,0,1.2,0,1.8,0c0.2,0,0.3-0.1,0.3-0.3c0-0.5,0-1,0-1.5c0-0.2,0.1-0.3,0.3-0.3c0.3,0,0.6,0,0.9,0
    c0.1,0,0.2,0,0.2,0.2c0,0.8,0,1.5,0,2.3c0,0.4-0.3,0.8-0.7,0.9c-0.1,0-0.3,0.1-0.4,0.1c-0.7,0-1.3,0-2,0c-0.2,0-0.2-0.1-0.2-0.2
    C11.5,14.3,11.4,14,11.4,13.6z"/>
  <path d="M3.2,14.9c-0.4,0-0.8,0-1.2,0C1.4,14.8,1,14.5,1,14c0-0.8,0-1.5,0-2.3c0-0.1,0.1-0.2,0.2-0.2c0.3,0,0.6,0,1,0
    c0.1,0,0.2,0.1,0.2,0.2c0,0.5,0,1,0,1.6c0,0.3,0,0.3,0.3,0.3c0.5,0,1,0,1.5,0c0.2,0,0.2,0,0.2,0.2c0,0.3,0,0.6,0,0.9
    c0,0.2-0.1,0.2-0.2,0.2C3.9,14.9,3.6,14.9,3.2,14.9L3.2,14.9z"/>
  <path d="M1,3.2c0-0.3,0-0.7,0-1c0-0.4,0.1-0.8,0.5-1C1.6,1,1.8,1,2,1c0.7,0,1.5,0,2.2,0c0.2,0,0.2,0.1,0.2,0.2c0,0.3,0,0.6,0,0.8
    S4.4,2.3,4.3,2.3c-0.5,0-1.1,0-1.6,0c-0.2,0-0.3,0-0.3,0.2c0,0.5,0,1.1,0,1.6c0,0.2,0,0.2-0.2,0.2c-0.3,0-0.6,0-0.9,0
    C1,4.4,1,4.3,1,4.2C1,3.9,1,3.5,1,3.2z"/>
  <path d="M11.5,2.3c0-0.4,0-0.9,0-1.3c0.1,0,0.2,0,0.2,0c0.7,0,1.4,0,2.2,0c0.5,0,1,0.4,1,1c0,0.7,0,1.5,0,2.2c0,0.2,0,0.2-0.2,0.2
    c-0.3,0-0.6,0-0.9,0c-0.2,0-0.3,0-0.3-0.3c0-0.5,0-1.1,0-1.6c0-0.2-0.1-0.2-0.2-0.2c-0.5,0-1,0-1.6,0C11.6,2.3,11.6,2.3,11.5,2.3z"
    />
</g>
</svg>
