<?xml version="1.0" encoding="UTF-8" standalone="no"?>
<!DOCTYPE svg PUBLIC "-//W3C//DTD SVG 1.1//EN" "http://www.w3.org/Graphics/SVG/1.1/DTD/svg11.dtd">
<svg width="100%" height="100%" viewBox="0 0 16 16" version="1.1" xmlns="http://www.w3.org/2000/svg" xmlns:xlink="http://www.w3.org/1999/xlink" xml:space="preserve" xmlns:serif="http://www.serif.com/" style="fill-rule:evenodd;clip-rule:evenodd;stroke-linejoin:round;stroke-miterlimit:2;">
    <g transform="matrix(0.94697,0,0,1,-5.56438,4.39683)">
        <g>
            <path d="M5.876,3.432L10.628,0.954L10.628,2.01C10.628,2.09 10.608,2.163 10.568,2.229C10.528,2.295 10.462,2.352 10.37,2.4L8.192,3.516C8.1,3.564 8.003,3.605 7.901,3.639C7.799,3.673 7.69,3.704 7.574,3.732C7.69,3.76 7.799,3.791 7.901,3.825C8.003,3.859 8.1,3.9 8.192,3.948L10.37,5.07C10.462,5.118 10.528,5.175 10.568,5.241C10.608,5.307 10.628,5.38 10.628,5.46L10.628,6.516L5.876,4.032L5.876,3.432Z" style="fill-rule:nonzero;"/>
            <path d="M13.31,7.794C13.274,7.886 13.228,7.966 13.172,8.034C13.116,8.102 13.052,8.159 12.98,8.205C12.908,8.251 12.832,8.286 12.752,8.31C12.672,8.334 12.594,8.346 12.518,8.346L11.894,8.346L15.398,-0.618C15.466,-0.786 15.564,-0.915 15.692,-1.005C15.82,-1.095 15.974,-1.14 16.154,-1.14L16.784,-1.14L13.31,7.794Z" style="fill-rule:nonzero;"/>
            <path d="M18.02,6.516L18.02,5.46C18.02,5.38 18.04,5.307 18.08,5.241C18.12,5.175 18.186,5.118 18.278,5.07L20.456,3.948C20.632,3.86 20.838,3.788 21.074,3.732C20.958,3.704 20.849,3.673 20.747,3.639C20.645,3.605 20.548,3.564 20.456,3.516L18.278,2.4C18.186,2.352 18.12,2.295 18.08,2.229C18.04,2.163 18.02,2.09 18.02,2.01L18.02,0.954L22.772,3.432L22.772,4.032L18.02,6.516Z" style="fill-rule:nonzero;"/>
        </g>
    </g>
</svg>
