<?xml version="1.0" encoding="utf-8"?>
<!-- Generator: Adobe Illustrator 25.4.0, SVG Export Plug-In . SVG Version: 6.00 Build 0)  -->
<svg version="1.1" id="Layer_1" xmlns="http://www.w3.org/2000/svg" xmlns:xlink="http://www.w3.org/1999/xlink" x="0px" y="0px"
   viewBox="0 0 16 16" style="enable-background:new 0 0 16 16;" xml:space="preserve">
<path d="M15.3,13.5l-4.7-4.7c0.4-0.8,0.7-1.7,0.7-2.6c0-3-2.4-5.4-5.4-5.4c-3,0-5.4,2.4-5.4,5.4c0,3,2.4,5.4,5.4,5.4
  c1.1,0,2.1-0.3,3-0.9l4.6,4.6L15.3,13.5z M2.2,6.1C2.2,4,3.9,2.3,6,2.3c2.1,0,3.8,1.7,3.8,3.8C9.9,8.3,8.1,10,6,10
  C3.9,10,2.2,8.3,2.2,6.1z"/>
<polygon points="6.5,3.5 6.5,5 7.8,6.3 6.5,7.5 6.5,9 9.3,6.3 "/>
<polygon points="4.3,6.3 5.5,5 5.5,3.5 2.8,6.3 5.5,9 5.5,7.5 "/>
</svg>
