<?xml version="1.0" encoding="utf-8"?>
<!-- Generator: Adobe Illustrator 25.4.0, SVG Export Plug-In . SVG Version: 6.00 Build 0)  -->
<svg version="1.1" id="Layer_1" xmlns="http://www.w3.org/2000/svg" xmlns:xlink="http://www.w3.org/1999/xlink" x="0px" y="0px"
	 viewBox="0 0 16 16" style="enable-background:new 0 0 16 16;" xml:space="preserve">
<path d="M29.4-15c0.3-0.3,0.6-0.7,1-1.2c1.7,1.7,3.3,3.4,4.9,5c0.2,0.2,0.3,0.1,0.3-0.2c0-3.6,0-7.2,0-10.8
	c0.6,0,1.1,0,1.8,0c0,3.6,0,7.2,0,11.1c1.8-1.9,3.4-3.5,5.1-5.3c0.5,0.7,0.8,1.1,1,1.4c-2.3,2.3-4.7,4.7-7,7
	C34.2-10.2,31.8-12.6,29.4-15z"/>
<path d="M3.6,2.1c0.5,0,0.9,0,1.4,0c0,2.4,0,4.7,0,7c2.2,0,4.2,0,6.5,0c-1-0.8-1.8-1.5-2.8-2.4C9.2,6.2,9.6,6,9.8,5.8
	c1.3,1.3,2.7,2.7,4,4.1c-1.3,1.3-2.7,2.7-4.1,4.1c-0.2-0.2-0.5-0.5-1-1c0.9-0.8,1.7-1.5,2.6-2.2c0-0.1-0.1-0.1-0.1-0.2
	c-2.5,0-5.1,0-7.7,0C3.6,7.7,3.6,4.9,3.6,2.1z"/>
</svg>
