<?xml version="1.0" encoding="utf-8"?>
<!-- Generator: Adobe Illustrator 25.4.0, SVG Export Plug-In . SVG Version: 6.00 Build 0)  -->
<svg version="1.1" xmlns="http://www.w3.org/2000/svg" xmlns:xlink="http://www.w3.org/1999/xlink" x="0px" y="0px"
   viewBox="0 0 16 16" style="enable-background:new 0 0 16 16;" xml:space="preserve">
<g id="Layer_1">
  <path d="M1.2,8C3.1,9.9,4,10.8,6,12.8c0-0.1,0-0.3,0-0.4c0,0,0,0,0,0c0-0.5,0-1,0-1.5L3.1,7.9L6,5.1C6,5,6,4.9,6,4.8
    c0-0.4,0-0.9,0-1.3c0-0.1,0-0.3,0-0.4C4,5.1,3.2,6,1.2,8z"/>
  <path d="M14.8,7.9C12.9,6,12,5.1,10,3.1c0,0.1,0,0.3,0,0.4c0,0,0,0,0,0c0,0.5,0,1,0,1.5l2.9,2.9L10,10.8c0,0.1,0,0.2,0,0.3
    c0,0.4,0,0.9,0,1.3c0,0.1,0,0.3,0,0.4C12,10.8,12.8,9.8,14.8,7.9z"/>
  <g>
    <rect x="8.8" y="7.4" transform="matrix(0.7071 -0.7071 0.7071 0.7071 -2.9059 8.9846)" width="1.2" height="1.2"/>
    <rect x="6" y="7.4" transform="matrix(0.7071 -0.7071 0.7071 0.7071 -3.7215 7.0154)" width="1.2" height="1.2"/>
  </g>
</g>
<g id="Layer_2">
</g>
</svg>
