<?xml version="1.0" encoding="UTF-8" standalone="no"?>
<!DOCTYPE svg PUBLIC "-//W3C//DTD SVG 1.1//EN" "http://www.w3.org/Graphics/SVG/1.1/DTD/svg11.dtd">
<svg width="100%" height="100%" viewBox="0 0 16 16" version="1.1" xmlns="http://www.w3.org/2000/svg" xmlns:xlink="http://www.w3.org/1999/xlink" xml:space="preserve" xmlns:serif="http://www.serif.com/" style="fill-rule:evenodd;clip-rule:evenodd;stroke-linejoin:round;stroke-miterlimit:2;">
    <g transform="matrix(1.20425,0,0,1.20425,-4.93308,2.6379)">
        <g>
            <path d="M5.521,5.529C5.521,5.825 5.535,6.132 5.563,6.45C5.591,6.768 5.632,7.087 5.686,7.407C5.74,7.727 5.809,8.041 5.893,8.349C5.977,8.657 6.073,8.945 6.181,9.213C6.205,9.273 6.217,9.327 6.217,9.375C6.217,9.443 6.199,9.498 6.163,9.54C6.127,9.582 6.085,9.617 6.037,9.645L5.551,9.921C5.383,9.577 5.24,9.222 5.122,8.856C5.004,8.49 4.907,8.123 4.831,7.755C4.755,7.387 4.699,7.023 4.663,6.663C4.627,6.303 4.609,5.957 4.609,5.625C4.609,5.065 4.641,4.52 4.705,3.99C4.769,3.46 4.886,2.925 5.056,2.385C5.226,1.845 5.459,1.288 5.755,0.714C6.051,0.14 6.433,-0.471 6.901,-1.119L7.327,-0.837C7.359,-0.817 7.387,-0.79 7.411,-0.756C7.435,-0.722 7.447,-0.681 7.447,-0.633C7.447,-0.569 7.419,-0.495 7.363,-0.411C7.067,0.045 6.805,0.5 6.577,0.954C6.349,1.408 6.157,1.875 6.001,2.355C5.845,2.835 5.726,3.336 5.644,3.858C5.562,4.38 5.521,4.937 5.521,5.529Z" style="fill-rule:nonzero;"/>
            <path d="M11.869,5.631L11.047,8.175L10.579,8.175C10.499,8.175 10.434,8.148 10.384,8.094C10.334,8.04 10.309,7.969 10.309,7.881C10.309,7.825 10.317,7.773 10.333,7.725L11.011,5.631L9.511,5.631L8.815,7.779C8.771,7.919 8.701,8.02 8.605,8.082C8.509,8.144 8.405,8.175 8.293,8.175L7.831,8.175L8.653,5.631L7.771,5.631C7.599,5.631 7.513,5.551 7.513,5.391C7.513,5.363 7.516,5.334 7.522,5.304C7.528,5.274 7.535,5.239 7.543,5.199L7.633,4.869L8.863,4.869L9.499,2.883L8.101,2.883L8.227,2.457C8.259,2.345 8.314,2.263 8.392,2.211C8.47,2.159 8.585,2.133 8.737,2.133L9.703,2.133L10.411,-0.045C10.451,-0.161 10.516,-0.251 10.606,-0.315C10.696,-0.379 10.799,-0.411 10.915,-0.411L11.383,-0.411L10.555,2.133L12.055,2.133L12.883,-0.411L13.345,-0.411C13.433,-0.411 13.505,-0.387 13.561,-0.339C13.617,-0.291 13.645,-0.227 13.645,-0.147C13.645,-0.103 13.637,-0.063 13.621,-0.027L12.913,2.133L14.197,2.133L14.065,2.559C14.033,2.671 13.979,2.753 13.903,2.805C13.827,2.857 13.715,2.883 13.567,2.883L12.709,2.883L12.073,4.869L13.165,4.869C13.245,4.869 13.309,4.888 13.357,4.926C13.405,4.964 13.429,5.025 13.429,5.109C13.429,5.137 13.427,5.166 13.423,5.196C13.419,5.226 13.411,5.261 13.399,5.301L13.303,5.631L11.869,5.631ZM9.715,4.869L11.221,4.869L11.857,2.883L10.357,2.883L9.715,4.869Z" style="fill-rule:nonzero;"/>
            <path d="M16.027,3.273C16.027,2.981 16.013,2.675 15.985,2.355C15.957,2.035 15.914,1.715 15.856,1.395C15.798,1.075 15.728,0.761 15.646,0.453C15.564,0.145 15.469,-0.143 15.361,-0.411C15.337,-0.471 15.325,-0.523 15.325,-0.567C15.325,-0.635 15.343,-0.689 15.379,-0.729C15.415,-0.769 15.457,-0.805 15.505,-0.837L15.997,-1.119C16.161,-0.771 16.302,-0.415 16.42,-0.051C16.538,0.313 16.635,0.679 16.711,1.047C16.787,1.415 16.843,1.779 16.879,2.139C16.915,2.499 16.933,2.847 16.933,3.183C16.933,3.743 16.901,4.288 16.837,4.818C16.773,5.348 16.657,5.883 16.489,6.423C16.321,6.963 16.088,7.519 15.79,8.091C15.492,8.663 15.109,9.273 14.641,9.921L14.221,9.645C14.189,9.621 14.161,9.593 14.137,9.561C14.113,9.529 14.101,9.491 14.101,9.447C14.101,9.379 14.129,9.301 14.185,9.213C14.477,8.757 14.738,8.297 14.968,7.833C15.198,7.369 15.391,6.892 15.547,6.402C15.703,5.912 15.822,5.408 15.904,4.89C15.986,4.372 16.027,3.833 16.027,3.273Z" style="fill-rule:nonzero;"/>
        </g>
    </g>
</svg>
