<?xml version="1.0" encoding="utf-8"?>
<!-- Generator: Adobe Illustrator 25.4.0, SVG Export Plug-In . SVG Version: 6.00 Build 0)  -->
<svg version="1.1" id="Layer_1" xmlns="http://www.w3.org/2000/svg" xmlns:xlink="http://www.w3.org/1999/xlink" x="0px" y="0px"
   viewBox="0 0 16 16" style="enable-background:new 0 0 16 16;" xml:space="preserve">
<path d="M9,2.6c1.8,1.8,3.6,3.6,5.3,5.3c-1.8,1.8-3.5,3.6-5.3,5.4C9,9.8,9,6.2,9,2.6z"/>
<path d="M7,13.4c-0.1-0.1-0.2-0.2-0.3-0.2c-1.7-1.6-3.3-3.3-5-4.9C1.6,8.1,1.6,8,1.8,7.8c1.7-1.6,3.3-3.3,5-5C6.8,2.8,6.9,2.7,7,2.6
  C7,6.2,7,9.8,7,13.4z M3.3,8C4.1,8.8,5,9.7,5.8,10.5c0-1.7,0-3.4,0-5.1C4.9,6.3,4.1,7.2,3.3,8z"/>
</svg>
